# xmcd
#
# Track frame offsets:
#	150
#	11246
#	23853
#	37336
#	53460
#	67023
#	84365
#	98110
#	115846
#	134441
#	152757
#	169030
#	187542
#	200874
#	218146
#	234669
#	251088
#	263573
#	278512
#	294418
#	308205
#	322791
#	341003
#
# Disc length: 4755 seconds
#
# Revision: 0
# Processed by: cddbd v1.5.2PL0 Copyright (c) Steve Scherf et al.
# Submitted via: EasyCDDAExtractor 2010.6.0.0
#
DISCID=44129117
DTITLE=Various Artist - Country Hits, Vol. 41
DYEAR=2010
DGENRE=Country
TTITLE0=Alan Jackson - Chattahoochee
TTITLE1=Dierks Bentley - Love Grows Wild
TTITLE2=Brooks And Dunn - Brand New Man
TTITLE3=Drag The River - Medicine
TTITLE4=Trace Adkins - I'm Gonna Love You Anyway
TTITLE5=Billy Joe Shaver - Livin and Lovin Lie
TTITLE6=Dierks Bentley - Forget About You
TTITLE7=Alan Jackson - There Goes
TTITLE8=Dean Brody - Lazy Days
TTITLE9=Trace Adkins - (This Ain't) No Thinkin' Thing
TTITLE10=Drag The River - Kelly Country
TTITLE11=Brooks and Dunn - I Can't Get Over You
TTITLE12=Alan Jackson - Tropical Depression
TTITLE13=Dierks Bentley - I Can Only Think Of One
TTITLE14=Billy Joe Shaver - Corsicana Daily Sun
TTITLE15=Trace Adkins - And There Was You
TTITLE16=Drag The River - Lost Angel Saloon
TTITLE17=Brooks and Dunn - Boot Scootin' Boogie
TTITLE18=Dierks Bentley - Whiskey Tears
TTITLE19=Brooks and Dunn - Little Miss Honky Tonk
TTITLE20=Alan Jackson - Summertime Blues
TTITLE21=Martine McBride - Life #9
TTITLE22=Billy Joe Shaver - Heart And Heart
EXTD=
EXTT0=
EXTT1=
EXTT2=
EXTT3=
EXTT4=
EXTT5=
EXTT6=
EXTT7=
EXTT8=
EXTT9=
EXTT10=
EXTT11=
EXTT12=
EXTT13=
EXTT14=
EXTT15=
EXTT16=
EXTT17=
EXTT18=
EXTT19=
EXTT20=
EXTT21=
EXTT22=
PLAYORDER=
